<?xml version="1.0" encoding="iso-8859-1"?>
<!-- Generator: Adobe Illustrator 19.0.0, SVG Export Plug-In . SVG Version: 6.00 Build 0)  -->
<svg version="1.1" id="Layer_1" xmlns="http://www.w3.org/2000/svg" xmlns:xlink="http://www.w3.org/1999/xlink" x="0px" y="0px"
	 viewBox="0 0 512 512" style="enable-background:new 0 0 512 512;" xml:space="preserve">
<path style="fill:#0071CE;" d="M512,132.694c0-20.004-16.367-36.371-36.372-36.371H36.372C16.367,96.322,0,112.689,0,132.694
	v246.613c0,20.004,16.367,36.371,36.372,36.371h439.255c20.005,0,36.372-16.367,36.372-36.371V132.694L512,132.694z"/>
<path style="fill:#0055B8;" d="M5.41,398.324c2.997,4.849,7.098,8.95,11.945,11.947L180.27,247.357l-11.945-11.947L5.41,398.324z
	 M343.677,235.41l-11.945,11.947l162.914,162.913c4.849-2.997,8.95-7.097,11.947-11.947L343.677,235.41z"/>
<path style="fill:#00A8E1;" d="M475.628,96.322H36.372c-11.721,0-22.188,5.624-28.851,14.302l248.478,208.427l248.479-208.427
	C497.815,101.946,487.349,96.322,475.628,96.322z"/>
<path style="fill:#0071CE;" d="M475.628,96.322H36.372c-0.939,0-1.869,0.048-2.79,0.119l222.418,186.567L478.417,96.443
	C477.496,96.371,476.567,96.322,475.628,96.322z"/>
<g>
</g>
<g>
</g>
<g>
</g>
<g>
</g>
<g>
</g>
<g>
</g>
<g>
</g>
<g>
</g>
<g>
</g>
<g>
</g>
<g>
</g>
<g>
</g>
<g>
</g>
<g>
</g>
<g>
</g>
</svg>
