<?xml version="1.0" encoding="iso-8859-1"?>
<!-- Generator: Adobe Illustrator 19.0.0, SVG Export Plug-In . SVG Version: 6.00 Build 0)  -->
<svg version="1.1" id="Capa_1" xmlns="http://www.w3.org/2000/svg" xmlns:xlink="http://www.w3.org/1999/xlink" x="0px" y="0px"
	 viewBox="0 0 511.999 511.999" style="enable-background:new 0 0 511.999 511.999;" xml:space="preserve">
<path style="fill:#003A7F;" d="M256,511.999c-0.043,0-0.07,0-0.113,0c-44.274-0.02-87.907-11.524-126.181-33.272
	c-6.061-3.443-10.077-9.391-11.021-16.315c-0.95-6.971,1.351-13.826,6.311-18.809l12.365-12.419
	c2.922-2.936,7.671-2.947,10.606-0.022c2.936,2.922,2.946,7.671,0.023,10.606l-12.365,12.419c-1.634,1.641-2.392,3.9-2.079,6.199
	c0.308,2.254,1.608,4.186,3.569,5.3c36.021,20.467,77.093,31.295,118.777,31.313c0.032,0,0.074,0,0.106,0
	c132.219,0.005,240.315-107.516,240.998-239.728c0.685-132.561-106.572-241.24-239.093-242.265
	c-21.185-0.159-42.238,2.444-62.577,7.755c-4.007,1.048-8.104-1.354-9.151-5.362c-1.046-4.008,1.354-8.104,5.362-9.151
	c21.613-5.644,43.971-8.412,66.482-8.241C326.21,0.534,390.171,27.554,438.12,76.088c47.992,48.578,74.228,112.951,73.875,181.262
	C511.272,397.782,396.436,511.99,256,511.999z"/>
<g>
	<path style="fill:#5A9BCC;" d="M119.567,275.761c-0.761,0-1.533-0.116-2.296-0.361c-3.944-1.268-6.114-5.491-4.847-9.435
		c23.12-71.961,80.215-127.86,152.73-149.53c3.967-1.191,8.147,1.068,9.333,5.038c1.186,3.969-1.07,8.147-5.039,9.333
		c-67.775,20.255-121.138,72.497-142.744,139.747C125.684,273.733,122.737,275.761,119.567,275.761z"/>
	<path style="fill:#5A9BCC;" d="M165.271,270.275c-0.76,0-1.533-0.116-2.295-0.361c-3.944-1.268-6.114-5.491-4.847-9.435
		c15.29-47.588,53.046-84.553,100.999-98.883c3.967-1.193,8.147,1.068,9.333,5.038c1.186,3.969-1.07,8.147-5.039,9.333
		c-43.213,12.914-77.236,46.223-91.012,89.1C171.388,268.248,168.441,270.275,165.271,270.275z"/>
	<path style="fill:#5A9BCC;" d="M73.992,279.242c-0.761,0-1.533-0.116-2.296-0.361c-3.944-1.268-6.114-5.491-4.847-9.435
		c15.027-46.772,41.652-89.73,76.997-124.23c35.152-34.312,78.484-59.845,125.311-73.838c3.967-1.191,8.147,1.068,9.333,5.038
		c1.186,3.969-1.07,8.147-5.039,9.333C182.136,113.04,110.24,183.426,81.13,274.033C80.108,277.215,77.162,279.242,73.992,279.242z"
		/>
</g>
<path style="fill:#1E70AD;" d="M426.046,128.352l6.194,6.194c22.79,22.79,31.247,56.18,22.076,87.144
	c-16.101,54.369-45.927,104.418-86.246,144.738s-90.368,70.145-144.745,86.253c-30.964,9.171-64.354,0.714-87.144-22.076
	l-6.194-6.194c-14.701-14.701-14.701-38.544,0.007-53.252c0.127-0.127,0.255-0.24,0.382-0.368l-0.007-0.007l32.414-32.414
	c13.23-13.23,34.684-13.23,47.921,0.007l23.632,23.632c34.16-13.386,54.348-22.684,80.49-48.826s35.433-46.323,48.819-80.483
	l-23.632-23.632c-13.237-13.237-13.237-34.691,0-47.928l32.824-32.824C387.544,113.651,411.352,113.658,426.046,128.352z"/>
<g>
	<path style="fill:#0054A0;" d="M210.704,338.377l8.132,8.132l-83.375,83.375l-5.473-5.473
		c-14.701-14.701-14.701-38.544,0.007-53.252c0.127-0.127,0.255-0.24,0.382-0.368l-0.007-0.007l32.414-32.414
		C176.013,325.14,197.467,325.14,210.704,338.377z"/>
	<path style="fill:#0054A0;" d="M426.046,128.352l5.473,5.473l-83.375,83.375l-8.132-8.132c-13.237-13.237-13.237-34.691,0-47.928
		l32.824-32.824C387.544,113.651,411.352,113.658,426.046,128.352z"/>
	<path style="fill:#0054A0;" d="M454.321,221.689c-16.11,54.37-45.93,104.42-86.25,144.74s-90.37,70.15-144.74,86.25
		c-30.96,9.17-64.35,0.71-87.14-22.07l-6.2-6.2c-0.67-0.67-1.3-1.35-1.91-2.06c22.65,20.57,54.47,27.92,84.06,19.15
		c54.37-16.11,104.42-45.93,144.74-86.25s70.15-90.37,86.25-144.75c8.77-29.62,1.41-61.45-19.19-84.1c0.72,0.62,1.43,1.27,2.11,1.95
		l6.19,6.2C455.031,157.339,463.491,190.729,454.321,221.689z"/>
</g>
<path style="fill:#003A7F;" d="M44.82,394.529c-2.507,0-4.956-1.256-6.376-3.541c-25.498-41.009-38.789-88.345-38.436-136.89
	c0.374-51.47,16.063-101.046,45.371-143.369c28.593-41.29,68.188-73.086,114.503-91.951c3.835-1.56,8.212,0.28,9.775,4.117
	c1.563,3.836-0.28,8.213-4.117,9.775C74.804,69.629,15.717,156.589,15.008,254.208c-0.333,45.704,12.176,90.264,36.174,128.86
	c2.187,3.518,1.108,8.143-2.409,10.329C47.54,394.164,46.171,394.529,44.82,394.529z"/>
<g>
	<path style="fill:#1E70AD;" d="M424.708,119.417l-94.061,94.061c-3.706,3.706-9.713,3.706-13.419,0l-12.046-12.046
		c-17.981-17.981-17.981-47.134,0-65.115l42.365-42.365c17.981-17.981,47.134-17.981,65.115,0l12.046,12.046
		C428.414,109.704,428.414,115.711,424.708,119.417z"/>
	<path style="fill:#1E70AD;" d="M213.558,330.567l-94.061,94.061c-3.706,3.706-9.713,3.706-13.419,0l-12.046-12.046
		c-17.981-17.981-17.981-47.134,0-65.115l42.365-42.365c17.981-17.981,47.134-17.981,65.115,0l12.046,12.046
		C217.264,320.854,217.264,326.862,213.558,330.567z"/>
</g>
<g>
	<path style="fill:#5A9BCC;" d="M304.372,204.281c-1.919,0-3.839-0.732-5.303-2.196c-2.929-2.93-2.929-7.678,0-10.607
		L402.111,88.434c2.929-2.928,7.678-2.928,10.606,0c2.929,2.93,2.929,7.678,0,10.607L309.675,202.085
		C308.21,203.549,306.291,204.281,304.372,204.281z"/>
	<path style="fill:#5A9BCC;" d="M93.52,415.133c-1.919,0-3.839-0.732-5.303-2.196c-2.929-2.93-2.929-7.678,0-10.607L191.26,299.287
		c2.929-2.928,7.678-2.928,10.606,0c2.929,2.93,2.929,7.678,0,10.607L98.823,412.936C97.358,414.4,95.439,415.133,93.52,415.133z"/>
</g>
<g>
	<path style="fill:#0054A0;" d="M322.403,155.731c-1.919,0-3.838-0.731-5.302-2.195l-1.175-1.175
		c-2.93-2.929-2.931-7.678-0.002-10.606c2.927-2.932,7.676-2.932,10.606-0.003l1.175,1.175c2.93,2.929,2.931,7.678,0.002,10.606
		C326.243,154.999,324.323,155.731,322.403,155.731z"/>
	<path style="fill:#0054A0;" d="M340.744,137.391c-1.92,0-3.84-0.732-5.304-2.198l-1.175-1.176
		c-2.929-2.929-2.928-7.678,0.002-10.606c2.929-2.926,7.678-2.929,10.606,0.003l1.175,1.176c2.929,2.929,2.928,7.678-0.002,10.606
		C344.582,136.658,342.663,137.391,340.744,137.391z"/>
	<path style="fill:#0054A0;" d="M359.085,119.049c-1.919,0-3.839-0.732-5.303-2.196l-1.175-1.175c-2.929-2.93-2.929-7.678,0-10.607
		c2.929-2.928,7.678-2.928,10.606,0l1.175,1.175c2.929,2.93,2.929,7.678,0,10.607C362.924,118.316,361.005,119.049,359.085,119.049z
		"/>
	<path style="fill:#0054A0;" d="M111.551,366.583c-1.919,0-3.839-0.732-5.303-2.196l-1.175-1.175c-2.929-2.93-2.929-7.678,0-10.607
		c2.929-2.928,7.678-2.928,10.606,0l1.175,1.175c2.929,2.93,2.929,7.678,0,10.607C115.39,365.85,113.47,366.583,111.551,366.583z"/>
	<path style="fill:#0054A0;" d="M129.892,348.242c-1.919,0-3.839-0.732-5.303-2.196l-1.175-1.175c-2.929-2.93-2.929-7.678,0-10.607
		c2.929-2.928,7.678-2.928,10.606,0l1.175,1.175c2.929,2.93,2.929,7.678,0,10.607C133.731,347.51,131.812,348.242,129.892,348.242z"
		/>
	<path style="fill:#0054A0;" d="M148.233,329.9c-1.919,0-3.839-0.732-5.303-2.196l-1.175-1.175c-2.929-2.93-2.929-7.678,0-10.607
		c2.929-2.928,7.678-2.928,10.606,0l1.175,1.175c2.929,2.93,2.929,7.678,0,10.607C152.072,329.168,150.153,329.9,148.233,329.9z"/>
</g>
<g>
</g>
<g>
</g>
<g>
</g>
<g>
</g>
<g>
</g>
<g>
</g>
<g>
</g>
<g>
</g>
<g>
</g>
<g>
</g>
<g>
</g>
<g>
</g>
<g>
</g>
<g>
</g>
<g>
</g>
</svg>
